<svg aria-hidden="true" style="position: absolute; width: 0; height: 0; overflow: hidden;" version="1.1" xmlns="http://www.w3.org/2000/svg" xmlns:xlink="http://www.w3.org/1999/xlink">
<defs>
<symbol id="icon-wakologo" viewBox="0 0 45 32">
<path fill="#00a0e4" style="fill: var(--color1, #00a0e4)" d="M31.884 16.702c0 5.317-4.31 9.628-9.628 9.628s-9.629-4.311-9.629-9.628 4.311-9.628 9.629-9.628c5.317 0 9.628 4.311 9.628 9.628z"></path>
<path fill="#fff" style="fill: var(--color2, #fff)" d="M18.093 24.856l-0.245-0.153 0.446-1.026-0.004-0.002-0.736 0.846-0.245-0.153 0.437-1.032-0.003-0.002-0.727 0.851-0.245-0.153 1.024-1.125 0.286 0.179-0.433 1.010 0.004 0.002 0.717-0.832 0.286 0.179z"></path>
<path fill="#fff" style="fill: var(--color2, #fff)" d="M17.082 22.562c-0.134-0.118-0.257-0.023-0.524 0.279-0.265 0.3-0.346 0.436-0.212 0.554s0.258 0.021 0.524-0.279c0.267-0.302 0.346-0.436 0.212-0.554zM16.199 23.562c-0.339-0.3-0.168-0.58 0.133-0.921s0.558-0.546 0.897-0.246c0.34 0.3 0.168 0.579-0.133 0.921s-0.558 0.546-0.897 0.246z"></path>
<path fill="#fff" style="fill: var(--color2, #fff)" d="M15.94 22.342l-0.082-0.096c-0.094-0.11-0.195-0.131-0.318-0.026-0.105 0.090-0.113 0.188-0.021 0.294l0.093 0.108zM15.639 22.997l-0.363-0.423c-0.162-0.189-0.162-0.386 0.034-0.553 0.153-0.131 0.305-0.156 0.442-0.051l0.003-0.003c-0.113-0.174-0.046-0.27 0.19-0.48 0.12-0.105 0.173-0.162 0.16-0.225l0.010-0.008 0.213 0.248c-0.011 0.051-0.052 0.091-0.095 0.131l-0.213 0.193c-0.085 0.081-0.108 0.164-0.027 0.258l0.105 0.123 0.481-0.412 0.196 0.229z"></path>
<path fill="#fff" style="fill: var(--color2, #fff)" d="M16.092 21.205l-1.252 0.822-0.166-0.252 1.045-0.687-0.294-0.447 0.207-0.136z"></path>
<path fill="#fff" style="fill: var(--color2, #fff)" d="M15.273 20.287l-0.059-0.121c-0.091-0.189-0.229-0.169-0.595 0.009-0.306 0.148-0.449 0.251-0.35 0.456l0.056 0.115zM14.257 21.115l-0.216-0.445c-0.182-0.375 0.041-0.57 0.439-0.763 0.475-0.231 0.742-0.234 0.917 0.126l0.208 0.428z"></path>
<path fill="#fff" style="fill: var(--color2, #fff)" d="M14.338 18.798l-0.070-0.285-0.619 0.3 0.001 0.004zM13.441 19.058l-0.089-0.363 1.36-0.741 0.075 0.306-0.291 0.142 0.095 0.387 0.324-0.008 0.075 0.306z"></path>
<path fill="#fff" style="fill: var(--color2, #fff)" d="M14.23 17.755l0.044-0.005c0.14-0.015 0.225-0.064 0.209-0.222-0.010-0.092-0.077-0.173-0.202-0.16-0.134 0.014-0.181 0.087-0.227 0.294-0.062 0.277-0.163 0.412-0.41 0.438-0.292 0.031-0.457-0.129-0.487-0.415-0.028-0.267 0.066-0.473 0.352-0.503l0.042-0.004 0.030 0.288c-0.142 0.015-0.216 0.069-0.204 0.186 0.014 0.136 0.101 0.162 0.191 0.153 0.092-0.010 0.147-0.043 0.186-0.176l0.076-0.242c0.077-0.236 0.181-0.306 0.365-0.325 0.315-0.033 0.477 0.144 0.512 0.469 0.036 0.34-0.109 0.49-0.384 0.519l-0.061 0.006z"></path>
<path fill="#fff" style="fill: var(--color2, #fff)" d="M14.162 16.709l0.044 0.001c0.14 0.003 0.231-0.035 0.235-0.194 0.002-0.092-0.055-0.181-0.18-0.184-0.134-0.003-0.19 0.063-0.262 0.262-0.096 0.266-0.214 0.387-0.461 0.382-0.293-0.007-0.436-0.186-0.43-0.473 0.006-0.268 0.126-0.46 0.413-0.454l0.042 0.001-0.007 0.289c-0.142-0.003-0.223 0.041-0.226 0.158-0.003 0.136 0.080 0.174 0.17 0.176 0.092 0.002 0.151-0.024 0.207-0.15l0.106-0.23c0.106-0.224 0.218-0.28 0.402-0.276 0.316 0.007 0.454 0.203 0.447 0.53-0.008 0.342-0.17 0.472-0.447 0.466l-0.061-0.001z"></path>
<path fill="#fff" style="fill: var(--color2, #fff)" d="M14.536 15.473c0.028-0.176-0.119-0.229-0.516-0.292-0.396-0.063-0.553-0.058-0.581 0.118s0.121 0.229 0.516 0.292c0.397 0.063 0.553 0.058 0.581-0.118zM13.219 15.264c0.071-0.447 0.399-0.453 0.848-0.381s0.759 0.178 0.688 0.625c-0.071 0.447-0.399 0.453-0.848 0.381s-0.759-0.178-0.688-0.625z"></path>
<path fill="#fff" style="fill: var(--color2, #fff)" d="M14.063 14.024c-0.209-0.063-0.312-0.049-0.351 0.082-0.044 0.145 0.090 0.224 0.497 0.348 0.433 0.132 0.53 0.095 0.568-0.029 0.031-0.102 0.003-0.196-0.308-0.291l0.088-0.289c0.311 0.095 0.553 0.251 0.438 0.63-0.132 0.433-0.457 0.394-0.892 0.261s-0.728-0.28-0.596-0.714c0.126-0.413 0.438-0.351 0.646-0.288z"></path>
<path fill="#fff" style="fill: var(--color2, #fff)" d="M15.153 13.922l-1.383-0.574 0.116-0.279 1.383 0.574z"></path>
<path fill="#fff" style="fill: var(--color2, #fff)" d="M14.971 12.956l0.139-0.259-0.662-0.191-0.002 0.004zM14.13 12.549l0.177-0.329 1.507 0.36-0.149 0.277-0.312-0.089-0.189 0.351 0.246 0.211-0.149 0.277z"></path>
<path fill="#fff" style="fill: var(--color2, #fff)" d="M15.041 11.102l0.203 0.142-0.187 0.268 1.025 0.715-0.173 0.248-1.025-0.715-0.187 0.268-0.203-0.142z"></path>
<path fill="#fff" style="fill: var(--color2, #fff)" d="M16.319 11.916l-1.146-0.964 0.194-0.231 1.146 0.964z"></path>
<path fill="#fff" style="fill: var(--color2, #fff)" d="M16.799 11.105c0.128-0.124 0.042-0.255-0.239-0.543-0.28-0.287-0.409-0.378-0.537-0.253s-0.040 0.256 0.239 0.543c0.281 0.288 0.409 0.378 0.537 0.253zM15.868 10.15c0.325-0.316 0.59-0.124 0.908 0.202s0.502 0.597 0.178 0.913c-0.324 0.316-0.591 0.124-0.908-0.202s-0.502-0.597-0.178-0.913z"></path>
<path fill="#fff" style="fill: var(--color2, #fff)" d="M16.754 9.426l0.9 0.612 0.003-0.002-0.605-0.827 0.223-0.163 0.884 1.208-0.277 0.203-0.917-0.628-0.003 0.002 0.619 0.846-0.223 0.163-0.884-1.208z"></path>
<path fill="#fff" style="fill: var(--color2, #fff)" d="M19.071 9.562c0.163-0.073 0.127-0.224-0.037-0.592-0.163-0.366-0.253-0.495-0.416-0.423s-0.126 0.226 0.037 0.592c0.164 0.368 0.253 0.495 0.416 0.423zM18.527 8.345c0.413-0.184 0.597 0.087 0.782 0.503s0.265 0.733-0.148 0.918c-0.414 0.184-0.597-0.087-0.782-0.503s-0.265-0.733 0.148-0.918z"></path>
<path fill="#fff" style="fill: var(--color2, #fff)" d="M19.26 8.077l0.802-0.241 0.071 0.237-0.512 0.154 0.102 0.338 0.482-0.145 0.071 0.237-0.482 0.145 0.187 0.623-0.289 0.087z"></path>
<path fill="#fff" style="fill: var(--color2, #fff)" d="M21.197 7.641l0.059 0.597 0.004-0 0.321-0.634 0.326-0.032-0.342 0.678 0.535 0.807-0.338 0.033-0.367-0.581-0.094 0.18 0.044 0.442-0.301 0.030-0.147-1.49z"></path>
<path fill="#fff" style="fill: var(--color2, #fff)" d="M22.098 9.082l-0.024-1.498 0.302-0.005 0.024 1.498z"></path>
<path fill="#fff" style="fill: var(--color2, #fff)" d="M23.267 8.145c0.021-0.217-0.014-0.315-0.15-0.328-0.15-0.014-0.202 0.132-0.243 0.556-0.043 0.451 0.012 0.538 0.141 0.551 0.107 0.010 0.193-0.036 0.224-0.36l0.3 0.029c-0.031 0.323-0.137 0.591-0.531 0.553-0.451-0.043-0.476-0.37-0.433-0.823s0.131-0.769 0.581-0.726c0.43 0.041 0.431 0.359 0.41 0.576z"></path>
<path fill="#fff" style="fill: var(--color2, #fff)" d="M24.189 7.786l-0.137 0.584 0.004 0.001 0.509-0.497 0.319 0.075-0.543 0.532 0.246 0.937-0.331-0.077-0.16-0.669-0.147 0.14-0.102 0.433-0.294-0.069 0.342-1.458z"></path>
<path fill="#fff" style="fill: var(--color2, #fff)" d="M25.149 8.7l0.080 0.031c0.157 0.060 0.245 0.036 0.296-0.097s0.008-0.206-0.133-0.26l-0.102-0.039zM24.911 9.316l0.11 0.042c0.135 0.052 0.246 0.039 0.308-0.124s-0.011-0.245-0.134-0.292l-0.121-0.047zM25.088 8.018l0.471 0.182c0.231 0.089 0.364 0.239 0.261 0.507-0.058 0.151-0.173 0.239-0.329 0.224l-0.001 0.004c0.148 0.082 0.201 0.235 0.129 0.423-0.084 0.219-0.265 0.367-0.594 0.241l-0.475-0.183z"></path>
<path fill="#fff" style="fill: var(--color2, #fff)" d="M26.052 9.87c0.156 0.087 0.256-0.033 0.452-0.384 0.195-0.35 0.245-0.499 0.089-0.586s-0.257 0.034-0.452 0.384c-0.196 0.351-0.245 0.499-0.089 0.586zM26.702 8.705c0.395 0.221 0.288 0.53 0.066 0.927s-0.428 0.652-0.824 0.431c-0.395-0.221-0.288-0.53-0.066-0.927s0.428-0.652 0.824-0.431z"></path>
<path fill="#fff" style="fill: var(--color2, #fff)" d="M27.317 9.098l0.266 0.2-0.137 0.503 0.444-0.272 0.263 0.198-0.723 0.382-0.157 0.829-0.271-0.204 0.133-0.535-0.476 0.277-0.265-0.199 0.753-0.38z"></path>
<path fill="#fff" style="fill: var(--color2, #fff)" d="M27.294 10.98l1.011-1.103 0.222 0.204-1.011 1.103z"></path>
<path fill="#fff" style="fill: var(--color2, #fff)" d="M28.974 10.534l-0.524 0.954 0.003 0.003 0.766-0.682 0.184 0.207-1.119 0.995-0.229-0.257 0.538-0.973-0.003-0.003-0.783 0.697-0.184-0.207 1.118-0.995z"></path>
<path fill="#fff" style="fill: var(--color2, #fff)" d="M29.594 12.071c0.091-0.060 0.183-0.179 0.115-0.282-0.080-0.121-0.238-0.089-0.55 0.118-0.301 0.199-0.471 0.352-0.375 0.497 0.040 0.061 0.168 0.113 0.302 0.024l0.128-0.085-0.11-0.166 0.185-0.123 0.27 0.407-0.673 0.446-0.122-0.185 0.115-0.076-0.002-0.003c-0.138 0.004-0.235-0.051-0.313-0.17-0.205-0.309-0.015-0.523 0.417-0.809 0.419-0.278 0.699-0.322 0.912-0.001 0.182 0.274 0.115 0.482-0.138 0.65z"></path>
<path fill="#fff" style="fill: var(--color2, #fff)" d="M29.526 13.831c0.066 0.166 0.219 0.137 0.593-0.011 0.373-0.147 0.506-0.231 0.441-0.397s-0.221-0.136-0.593 0.011c-0.374 0.148-0.506 0.232-0.441 0.397zM30.766 13.34c0.166 0.421-0.113 0.593-0.536 0.76s-0.744 0.233-0.911-0.188c-0.166-0.421 0.113-0.593 0.536-0.76s0.744-0.233 0.911 0.188z"></path>
<path fill="#fff" style="fill: var(--color2, #fff)" d="M30.446 14.549l0.029 0.122c0.034 0.141 0.114 0.206 0.271 0.168 0.135-0.032 0.186-0.116 0.153-0.253l-0.033-0.139zM31.012 14.102l0.13 0.543c0.058 0.243-0.032 0.417-0.282 0.478-0.196 0.047-0.343 0-0.417-0.157l-0.004 0.001c0.021 0.206-0.082 0.261-0.388 0.341-0.154 0.039-0.228 0.066-0.245 0.128l-0.012 0.003-0.077-0.318c0.034-0.040 0.088-0.058 0.144-0.073l0.277-0.075c0.113-0.034 0.171-0.097 0.142-0.217l-0.038-0.157-0.616 0.148-0.071-0.294z"></path>
<path fill="#fff" style="fill: var(--color2, #fff)" d="M30.907 16.047c0.108-0.010 0.246-0.072 0.234-0.195-0.014-0.144-0.168-0.19-0.541-0.154-0.359 0.034-0.581 0.089-0.564 0.263 0.007 0.073 0.095 0.178 0.256 0.163l0.152-0.015-0.019-0.198 0.221-0.021 0.047 0.486-0.803 0.077-0.021-0.221 0.138-0.013-0-0.004c-0.124-0.062-0.183-0.155-0.197-0.297-0.035-0.369 0.233-0.469 0.748-0.518 0.501-0.048 0.769 0.044 0.806 0.428 0.031 0.328-0.125 0.479-0.427 0.508z"></path>
<path fill="#fff" style="fill: var(--color2, #fff)" d="M30.441 16.898l-0.012 0.293 0.679-0.117 0-0.004zM31.375 16.896l-0.015 0.373-1.512 0.334 0.013-0.314 0.319-0.056 0.016-0.398-0.314-0.082 0.013-0.314z"></path>
<path fill="#fff" style="fill: var(--color2, #fff)" d="M31.249 18.224l-1.075 0.172-0.001 0.004 1.008 0.186-0.050 0.272-1.472-0.272 0.063-0.338 1.098-0.172 0.001-0.004-1.031-0.191 0.050-0.272 1.472 0.272z"></path>
<path fill="#fff" style="fill: var(--color2, #fff)" d="M29.611 18.712l1.436 0.423-0.085 0.29-1.436-0.423z"></path>
<path fill="#fff" style="fill: var(--color2, #fff)" d="M29.716 19.167l0.754 0.893 0.19-0.478 0.23 0.091-0.318 0.802-0.213-0.084-0.743-0.897-0.21 0.529-0.23-0.091 0.335-0.845z"></path>
<path fill="#fff" style="fill: var(--color2, #fff)" d="M29.486 20.547l-0.142 0.257 0.659 0.2 0.002-0.004zM30.321 20.965l-0.181 0.326-1.502-0.381 0.153-0.275 0.311 0.093 0.193-0.348-0.243-0.214 0.153-0.275z"></path>
<path fill="#fff" style="fill: var(--color2, #fff)" d="M29.387 22.405l-0.201-0.144 0.191-0.266-1.015-0.73 0.176-0.245 1.015 0.73 0.191-0.266 0.201 0.145z"></path>
<path fill="#fff" style="fill: var(--color2, #fff)" d="M28.125 21.568l1.132 0.979-0.197 0.228-1.132-0.98z"></path>
<path fill="#fff" style="fill: var(--color2, #fff)" d="M27.63 22.375c-0.129 0.122-0.046 0.254 0.231 0.546 0.275 0.291 0.403 0.383 0.533 0.261s0.044-0.255-0.231-0.546c-0.277-0.292-0.403-0.383-0.533-0.261zM28.546 23.343c-0.329 0.311-0.592 0.116-0.904-0.214s-0.494-0.604-0.165-0.915c0.329-0.311 0.592-0.116 0.904 0.214s0.494 0.604 0.165 0.915z"></path>
<path fill="#fff" style="fill: var(--color2, #fff)" d="M27.65 24.057l-0.891-0.626-0.003 0.002 0.593 0.837-0.226 0.16-0.866-1.222 0.281-0.199 0.908 0.642 0.003-0.002-0.606-0.856 0.226-0.16 0.866 1.222z"></path>
<path fill="#fff" style="fill: var(--color2, #fff)" d="M26.167 23.788l-0.020-0.039c-0.065-0.124-0.142-0.186-0.283-0.112-0.082 0.043-0.133 0.135-0.074 0.247 0.062 0.119 0.147 0.136 0.356 0.102 0.28-0.044 0.443 0.001 0.557 0.22 0.136 0.26 0.048 0.472-0.207 0.605-0.238 0.124-0.464 0.112-0.597-0.142l-0.020-0.037 0.257-0.134c0.066 0.126 0.144 0.176 0.248 0.121 0.121-0.063 0.114-0.154 0.072-0.234-0.043-0.082-0.094-0.121-0.232-0.108l-0.253 0.019c-0.247 0.016-0.351-0.056-0.436-0.219-0.147-0.281-0.042-0.496 0.248-0.648 0.303-0.158 0.496-0.079 0.624 0.166l0.028 0.054z"></path>
<path fill="#fff" style="fill: var(--color2, #fff)" d="M22.45 25.028c-0.018-0.118-0.088-0.178-0.211-0.178-0.183 0-0.243 0.185-0.243 0.337 0 0.15 0.058 0.327 0.237 0.327 0.134 0 0.209-0.082 0.227-0.211h0.275c-0.038 0.275-0.224 0.425-0.499 0.425-0.313 0-0.524-0.221-0.524-0.532 0-0.323 0.192-0.562 0.53-0.562 0.245 0 0.471 0.128 0.488 0.393z"></path>
<path fill="#fff" style="fill: var(--color2, #fff)" d="M23.458 11.464l-0.918 0.002-0.281-0.874-0.282 0.874-0.918-0.002 0.744 0.538-0.286 0.872 0.742-0.541 0.741 0.542-0.285-0.873z"></path>
<path fill="#fff" style="fill: var(--color2, #fff)" d="M23.458 21.495l-0.918 0.002-0.282-0.874-0.282 0.874-0.918-0.002 0.744 0.538-0.286 0.872 0.742-0.541 0.742 0.542-0.285-0.873z"></path>
<path fill="#fff" style="fill: var(--color2, #fff)" d="M20.071 12.345l-0.918 0.002-0.281-0.874-0.282 0.874-0.918-0.002 0.744 0.538-0.286 0.872 0.742-0.541 0.742 0.542-0.285-0.873z"></path>
<path fill="#fff" style="fill: var(--color2, #fff)" d="M26.775 12.397l-0.918 0.002-0.281-0.874-0.282 0.874-0.918-0.002 0.744 0.538-0.286 0.872 0.742-0.541 0.742 0.542-0.285-0.873z"></path>
<path fill="#fff" style="fill: var(--color2, #fff)" d="M20.071 20.249l-0.918 0.002-0.281-0.874-0.282 0.874-0.918-0.002 0.744 0.538-0.286 0.872 0.742-0.541 0.741 0.542-0.285-0.873z"></path>
<path fill="#fff" style="fill: var(--color2, #fff)" d="M26.775 20.301l-0.918 0.002-0.281-0.874-0.282 0.874-0.918-0.002 0.744 0.538-0.286 0.872 0.742-0.541 0.742 0.542-0.285-0.873z"></path>
<path fill="#fff" style="fill: var(--color2, #fff)" d="M27.942 15.065c-0.207-0.217-0.528-0.359-0.909-0.359-0.754 0-1.246 0.515-1.246 1.148v1.010c0 0.309 0.074 0.62 0.266 0.86 0.104 0.13 0.63 0.694 0.812 0.81s0.406 0.135 0.672 0.135c0.757 0 1.246-0.451 1.246-1.148v-0.859c0-0.231-0.021-0.895-0.458-1.256-0.077-0.064-0.316-0.269-0.384-0.341z"></path>
<path fill="#fff" style="fill: var(--color2, #fff)" d="M25.795 15.15l-0.35-0.401h-0.955l-0.025 0.046-0.13 0.207-0.194-0.253h-0.983v3.355l0.504 0.505h0.992v-0.379l0.37 0.379h0.898l-0.034-0.114-0.703-2.006 0.541-1.206z"></path>
<path fill="#00a0e4" style="fill: var(--color1, #00a0e4)" d="M23.246 14.838h0.805v0.881l0.491-0.881h0.754l-0.61 1.135 0.61 2.042h-0.712l-0.365-1.213-0.161 0.307v0.906h-0.813z"></path>
<path fill="#fff" style="fill: var(--color2, #fff)" d="M22.378 15.323l-0.015-0.070-0.505-0.505h-1.15l-0.011 0.077-0.424 3.177-0.014 0.101 0.505 0.505h0.806l0.010-0.077 0.020-0.33h0.212l0.357 0.416 0.916-0.011-0.023-0.107z"></path>
<path fill="#00a0e4" style="fill: var(--color1, #00a0e4)" d="M21.128 17.007l0.125-0.909 0.228 0.909zM21.735 18.024l0.737-0.009-0.686-3.177h-1l-0.424 3.177h0.627l0.056-0.406h0.586z"></path>
<path fill="#fff" style="fill: var(--color2, #fff)" d="M19.943 14.748h-0.9l-0.012 0.075-0.071 0.43h-0.032l-0.436-0.505h-1.155l-0.011 0.076-0.062 0.428-0.425-0.505h-0.942l0.024 0.108 0.71 3.247 0.505 0.505h1.166l0.011-0.076 0.037-0.328 0.387 0.404h1.192l0.012-0.075 0.491-3.177 0.016-0.103z"></path>
<path fill="#00a0e4" style="fill: var(--color1, #00a0e4)" d="M16.008 14.838h0.763l0.415 1.585 0.229-1.585h1.009l0.424 1.652 0.271-1.652h0.721l-0.492 3.177h-1.043l-0.34-1.698-0.245 1.698h-1.017z"></path>
<path fill="#00a0e4" style="fill: var(--color1, #00a0e4)" d="M27.309 17.007v0c0 0.159-0.129 0.288-0.288 0.288s-0.288-0.129-0.288-0.288v-1.195c0-0.159 0.129-0.288 0.288-0.288s0.288 0.129 0.288 0.288zM27.033 14.796c-0.639 0-1.157 0.475-1.157 1.059v1.010c0 0.585 0.384 1.21 1.157 1.21 0.706 0 1.156-0.408 1.156-1.059v-1.010c0-0.585-0.383-1.21-1.156-1.21z"></path>
</symbol>
</defs>
</svg>
